<svg id="Calque_1" data-name="Calque 1" xmlns="http://www.w3.org/2000/svg" viewBox="0 0 582.41 89.78"><defs><style>.cls-1{fill:#c1272d;}</style></defs><path class="cls-1" d="M121.07,108.72q5,.48,5,1.49t-1.5,1v.48l1,1h.53q5,0,5-1.49c0-1.35.34-2,1-2h1.5c.67,0,1,.5,1,1.5H137l.53-1.5,3,.53,5-.53,2.5,1.5q8.58-.48,10.51-1.5l4.48.53h1l4.52-.53c2,.44,3,.94,3,1.5v3c0,.65-2,1.14-6,1.49L163,114.7l-5,.52-13.45-.52H144c-3.87,0-6.52.33-8,1l-3-1h-7.51c-.65,0-1-.5-1-1.5h-.53l-2.46,2-6-1-4.48.49h-2l-1-1v-2l7.47-2.51,3,1C120.23,110,121.07,109.48,121.07,108.72Zm5,82.35.48,1.5h1l1.49-1h1l1.49,1H138l2-.49,1.49.49v-.49l1-1h4a20.83,20.83,0,0,0,6.5,4.53h2.47v-1c0-.67-.82-1-2.47-1v-2.51l4,.53,5.45-.53,3,1h2l3.47-.48.53.48v4l-1,1.5-2.5-.49h-9.45l-3-.52-2.47.52-2.5-.52-.48.52v.49l-7.52-1-2.46,1-5.49-.49h-2l-2.46.49-3-.49h-6.46l-2.5.49-3-.49H113.6l-5,.49-.49-.49v-3.51l1-1h3.47l3-.49,1.5.49,4.52-.49,1.5.49C123.09,191.92,124.08,191.43,126.08,191.07Zm-11-69.52.48.49v.52c-.14.91-1.64,2.24-4.48,4h-.48l-2-2C108.59,123.52,110.75,122.52,115.09,121.55Zm18,0h.49l1,1v.49l-1.5,2.5.49,12.48-1.5,4v.48l2,6-2,5.49,2,3.48L132.54,169l1.49,2.46v1l-.48,3,.48.53v.48l-.48,3v1l.48,2.46-8.48,1.54-9-.53-3.47.53q-3.51-.41-3.51-3.52l6-3h.53a20.44,20.44,0,0,1-3.52-8l.53-8v-3l-1-4.52a7.84,7.84,0,0,0,6-3q5,0,5-2.46,4.22,0,5.45-2.51,3,0,3-3H131a7.45,7.45,0,0,0-6.46,3,5.69,5.69,0,0,0-4.52,2.51,8.64,8.64,0,0,0-6.46,2.46h-1.5V151l2-11.47L113.6,136l.48-1.49-1-7h.49q2.5,0,6-3.47l2.51-1.5h.48l3.52,1Q130.6,123.57,133.06,121.55Zm-5.49,55.9v2.46l1,1h.52v-1l-.52-2.46Zm13-55.9h1q6.12,5,10,5v1h-1v1H151l2.51-.48q4.17,3.9,7,11.95,2.32,0,3,7.47L163,153l.48.53V154l-.48,2,.48,2q-2.28,10.77-7,16.44,0,1.1-4.49,3.51-2.55,4.48-8.48,4.49l-4,1.49q-2.51,0-2.5-4.48,0-1.37,5-2v-1h.48l-.48-2.5v-6l-.49-5a14.46,14.46,0,0,0,4-6c1,0,1.54-.33,1.54-1-.65-1.49-1.32-2.31-2-2.46l-1.5,1.5.49,2h-2v-2.5c0-1.64-.34-2.46-1-2.46l.52-2.51v-2H142l.48.53H143l.48-.53V147L142,144.49l1-7L139.52,126c-1.31,0-2-.33-2-1v-1Zm10,70.05,1,1-.53.53h-.48l-1-1,.53-.48Zm2.5-60.07-.52.53v.48H155v-.48Zm5.5,61v1.54h1v-.53Z" transform="translate(-108.1 -107.97)"/><path class="cls-1" d="M216.82,108l4.53.49h1.49l1,1V113c0,.64-1.33,1.14-4,1.49V114c0-.82.67-1.31,2-1.49V110l-7.56,3q-5.53,0-5.54,1.49l-6.06-.53h-4l-3,1-4.53-1-9,1-1.54-1-3.52.53h-.48l-2-.53-1.5.53c-3.36-.2-5.05-.7-5.05-1.49v-1.54l1-1,.48,1.54H170c1-1.35,2.84-2,5.54-2v-.53l5,.53h11.6l7-1,4.53.49Zm5.45,82.88h.49l1.49,1.5v4l-1,1h-4l-4.53-.48-.52.48-5-.48h-.53l-13.05.48-.53-.48h-.48l-2.55.48-5-1-4,1-3.52-.48-3,.48-2-.48-4,.48-2-1.49.48-.53v-1.49l-.48-1.54h.48l2.55-1h2q5,0,5,1.5v.48h1v-.48l-.48-.53v-.48l1.49-.49,5.54.49.48-.49H187l6,1,4-1,.49.49,2.54-.49h.49l1.49,1,2-.48.53.48h.48l.53-.48h.48l3,1a16.37,16.37,0,0,1,6.54-1h5Zm-39.55-69.12,8,2.55,2.55-1.54,2.51,3v2.51a5.55,5.55,0,0,1-1.5,3.51v2l.49,5.06a5.42,5.42,0,0,1-4.05,5.53l-3,2q-4.53,0-6.07,2.5l-3.51.48v.53q2.51,2.12,2.5,3.52h.53c0-1.5,1.51-2.33,4.52-2.51,0-1.35,1.18-2,3.52-2l4.53-3h.52l2.51,5.54-3.52,12.08.49,2-.49.49v.52l1,3.52-.52.48v.53l.52.48v1.54h-.52l.52,3.52v6q0,1.19-9.09,2l-4.53-2.51h-.48l-6.07,2q-3.21-1.3-3.51-2.54v-1.5c0-.88,1.17-1.55,3.51-2l-.48-2.5,1.49-4.53L173.67,166a12.28,12.28,0,0,0,1-5.54v-3l-1-7.56,1-5.54-1-5.53,1-7.08q0-1.71-5.54-6.5A25.2,25.2,0,0,1,182.72,121.73Zm19.12-1,.53.53v.48l-1,3v.53l1,1h1a5.47,5.47,0,0,1,2-4l5,.48,5.53-.48.53.48v4l.49,11.08q-2.6,2.5-4.53,2.5l-3.52-5,.49-1.54-5.54-5v-.52h-1.49l-2,.52a3.25,3.25,0,0,1-2.5-3.51v-2.55Q197.84,121.42,201.84,120.72Zm3,18.63h1.54q1.49,6.15,3,21.67v2l-2.51,2.5h-.48q-3.69-2.64-6.55-9l-2-2v-.53c0-1.85,1.33-3.35,4-4.53l1-2-.48-.53v-.48Zm10.59,25.18c.88,0,1.71,2.35,2.51,7l-1,3v8l-1.5,1.53-8.08-1.53-9.06,1v-.49c.41-3,.93-4.52,1.54-4.52l2.51.48a1.78,1.78,0,0,1,2-2l1.49.53q3-2.41,6.07-9.58Z" transform="translate(-108.1 -107.97)"/><path class="cls-1" d="M278.65,191h3.56l1.5,1.54v1.49c-.82,2.38-2.17,3.56-4,3.56l-21.32-1-3.51.48-6.6-1-7.12,1-.48-.48h-.53l-2,.48-1.54-.48-3,1-7.12-.53h-3.51l-1.54-1.49q0-3.56,7.12-3.56l7.07.53,8.62-1,1,1v2.5h1v-.48l-.48-1.54,1.53-.48.49.48h.52l2-1,2,.53,9.62-.53h.53l2.5.53,8.66-1,1,1h3C277.64,191.54,278,191,278.65,191Zm-42-82.31.48.53-.48,2.5v1h1l.48-2,.53.53h.48l8.13-2,2.55.48,3.56-.48,1,1,11.65-.53,2.54-1,3,1,5.58-1,4,1,1.54-.48.48.48v4l-1,1h-3.51v-1h2.5v-1.49h-4l-1,1,1,1.5h-1l-9.63-.49-10.68,1-4-.52-5.58.52-1.54-1-5.58,1-6.06-1-10.64,1-1-1.54v-3.51l1-1,1,1,.49-.53h.52l2.51.53A37,37,0,0,1,236.69,108.72Zm10.15,12.7h.48l.53.48h.48l-.48,2.55q.48,12.66,1.49,12.66,0,7.6-4.57,11.16l-1,2v1l1.54,1.54,2.55-1.54v1l-.53,2.07,1,3V160l-1,4,2,5.06v5.58l-.48,3.56q4,.53,4,4l-8.13,2-8.61-1.49h-2.51a5.54,5.54,0,0,0-3.56,1.49q-7.11-.75-7.11-2.5v-1h1.53c3.37,0,5.06-1.37,5.06-4.09v-1l-1-5.58v-1l5.09-.49v-1c-2.22,0-4.6-2-7.11-6.1l1-7.61-.53-.48v-.53l1-2.55-.52-3,.52-2.55-.52-4v-.53q0-1.23,6.1-2.5,0-1.54,12.13-2.55l-.48-.49v-.52l1-3H237.7a10,10,0,0,0-5.1,2l-1.49.48q-2.55,0-3.56-4l-5.06-5.58,1-1c2,0,3,.67,3,2h5.05q0-2.5,8.13-2.51l5.58.49ZM242.75,167v.52q.52,1.5,3,1.5h1.54v-2c-1.35-1-2-2-2-3h-1C243.26,164.33,242.75,165.34,242.75,167ZM262,120.89q2.77,0,4.57,3l-.52,5.09.52,1.5h.49c.49,0,1-1.19,1.53-3.56l2-1q6.06,3.28,6.06,12.17l-.48.53v.48a24.52,24.52,0,0,1,1.54,8.66Q265.33,161,253.43,161l-1.05-1,.52-4.57v-.53q3,0,4.57-10.63,6.07,0,6.07-2.55h8.65v-2.55q-3.56,0-3.56-2.5h-4.57q0,2.51-6.1,2.5h-1l-1-1a3,3,0,0,1,3.08-2q0-5.06-7.65-11.65v-.52c0-.5,1-1,3.08-1.5l2.51.49Zm0,10.64v1h2l-.52-1.5Z" transform="translate(-108.1 -107.97)"/><path class="cls-1" d="M325.1,191.21h2c.67,0,1,.49,1,1.49h2l-.53-.48v-.53l.53-.48,14.15,1.49,1-1h.48l1,1v3.56l-1,1h-1.49l-2-.53-4.05,1-21.22-1-3,.53-7.08-.53-6.59.53-1.49-.53-.53.53h-.49l-1.53-.53-4.53,1c-3.05-.17-4.57-.51-4.57-1l-2.51.53h-3l-1-1v-2q3-2.55,9.58-2.55v.53c0,1.34.85,2,2.55,2l10.59-2,3,.48,3.56-.48,2,.48,11.61-1,.52.53Zm-27.72-82.58,1,1h1.49l1.54-.52,2.5.52h2.55l4-1,2,1.5,4.52-.49h1v.49l3.56-.49h8.09l3-1c4.19.33,6.55.82,7.08,1.5l2-1.5c3.69.33,5.53.82,5.53,1.5v4.57h-.48l-4-.53-5.06,1-3-.48h-.52l-3.52.48-15.69-1-4.53.53-5.05-.53-2,.53-5.05-.53-4.05.53-1.54-.53-3,1-4.52-.48H282.7l-1.5-1.54v-1.49q0-1.77,10.11-2.55l2.51.52Zm9.31,18.2.53.52v7.56l-1.54,7.6a15.88,15.88,0,0,1,2,7.56q-1.23,9.85-2.5,13.14l.48,3-.48,1.53q1,0,3,11.12c1,0,1.83.68,2.5,2v1l-1.49,1.5H307.7l-6.55.53-5-1L284,184.44q-2.55-.75-2.55-1.5v-.52c0-2,1.53-3.53,4.57-4.53q2.29-6.06,3.52-6.06v-1.54l-2-.49.52-2.54v-.49c-1.34,0-2-1.34-2-4l.49-2.55-.49-6.55.49-3.56-.49-.48v-.53l1-7.07v-7.56l-.52-3.56h14.67Q303.18,130.87,306.69,126.83Zm-4.52-6.07h3l1.49,1.54v1.49q-.75,1.54-7.07,3.56,0,1.5-5.54,1.5H287l-2.54-.49v-1.53h1v-.49c-2.35,0-3.52-1.18-3.52-3.56l1.49-.48,9.1,1Q302.17,122.31,302.17,120.76Zm10.59,1,1.53,1.54-.52,3.52,1,3.56h1l.53-2.55-1.54-3.52.52-.53h.49l2,1.54a8.39,8.39,0,0,1,5.58-2.55q11.12,5.58,11.12,12.13l-.53,9.63-6.06,6.06h-2l-1.5-.53-2.55.53H315.3l-1.53-1,1.53-8.09-1-6.59.49-2a10.38,10.38,0,0,0-4.53-7.07v-1Zm0,29.31h1a3.45,3.45,0,0,0,2.55,1.54v.49c0,.67-.52,1-1.54,1l-.49.52v.49h6.07l3.51-3,.53.53v.49l-1.54,1.53v.49q9.86,0,12.13,6.59l.53,2.5-.53,1.54.53,1.5-1,4v2.55l1.49,1.49h1a5.62,5.62,0,0,0,3.56-1.49h1l.49,2q-2.29,5.06-10.11,9.1l-1.49-.53-2.55.53q-12.14-2.82-12.13-10.64l.53-2c-.5-2-1-3-1.54-3l.52-5.06c0-4.71-1.34-7.07-4-7.07l-.53-2.51v-.52Zm7.6,24.26v3h.48q0-4.51,7.08-4.52c0-1.35,1.18-2,3.56-2,1,0,1.49-.34,1.49-1v-1.54h-6.06c-1.85,0-2.86.85-3,2.55Q321.64,171.83,320.36,175.34Z" transform="translate(-108.1 -107.97)"/><path class="cls-1" d="M392.56,108l4.53.49h1.49l1,1V113c0,.64-1.33,1.14-4,1.49V114c0-.82.68-1.31,2-1.49V110l-7.55,3c-3.7,0-5.54.5-5.54,1.49l-6.07-.53h-4l-3,1-4.52-1-9.06,1-1.53-1-3.52.53h-.48l-2-.53-1.5.53q-5.06-.3-5.05-1.49v-1.54l1-1,.48,1.54h.53q1.49-2,5.54-2v-.53l5,.53h11.6l7-1,4.52.49ZM398,190.85h.48l1.5,1.5v4l-1,1h-4l-4.53-.48-.53.48-5-.48h-.52l-13.06.48-.52-.48h-.49l-2.54.48-5-1-4,1-3.51-.48-3,.48-2-.48-4,.48-2-1.49.49-.53v-1.49l-.49-1.54h.49l2.55-1h2q5,0,5,1.5v.48h1v-.48l-.49-.53v-.48l1.5-.49,5.53.49.49-.49h.53l6,1,4-1,.48.49,2.55-.49h.48l1.5,1,2-.48.53.48h.48l.53-.48h.48l3,1a16.46,16.46,0,0,1,6.55-1h5Zm-39.55-69.12,8,2.55,2.55-1.54,2.5,3v2.51a5.53,5.53,0,0,1-1.49,3.51v2l.48,5.06a5.41,5.41,0,0,1-4,5.53l-3,2c-3,0-5,.83-6.06,2.5l-3.52.48v.53q2.51,2.12,2.51,3.52H357c0-1.5,1.51-2.33,4.53-2.51,0-1.35,1.17-2,3.52-2l4.52-3h.53l2.51,5.54-3.52,12.08.48,2-.48.49v.52l1,3.52-.53.48v.53l.53.48v1.54h-.53l.53,3.52v6q0,1.19-9.1,2l-4.52-2.51H356l-6.06,2q-3.21-1.3-3.52-2.54v-1.5c0-.88,1.18-1.55,3.52-2l-.48-2.5,1.49-4.53L349.41,166a12.28,12.28,0,0,0,1-5.54v-3l-1-7.56,1-5.54-1-5.53,1-7.08q0-1.71-5.54-6.5A25.18,25.18,0,0,1,358.46,121.73Zm19.12-1,.52.53v.48l-1,3v.53l1,1h1a5.5,5.5,0,0,1,2-4l5,.48,5.54-.48.53.48v4l.48,11.08c-1.73,1.67-3.23,2.5-4.52,2.5l-3.52-5,.48-1.54-5.53-5v-.52h-1.5l-2,.52a3.25,3.25,0,0,1-2.5-3.51v-2.55Q373.58,121.42,377.58,120.72Zm3,18.63h1.54q1.49,6.15,3,21.67v2l-2.5,2.5h-.48q-3.7-2.64-6.55-9l-2-2v-.53c0-1.85,1.33-3.35,4-4.53l1-2-.49-.53v-.48Zm10.59,25.18c.88,0,1.71,2.35,2.5,7l-1,3v8l-1.49,1.53-8.09-1.53-9.05,1v-.49q.62-4.51,1.54-4.52l2.5.48a1.79,1.79,0,0,1,2-2l1.5.53q3-2.41,6.06-9.58Z" transform="translate(-108.1 -107.97)"/><path class="cls-1" d="M410.89,191.6l1,1h5l7.52-.48.48,1.49,2.51-1,3,.49.48-.49v-.48l6.5,1,8.53-.49h1.49l1.5-1h1.49c.68,0,1,.5,1,1.5h1l1.5-1h1v4.48l-1,1-3-.48-7,.48h-1.5l-2.5-.48-3,.48h-1.49l-3-.48-.49.48h-.53l-3-.48h-.49l-2,.48-3.51-.48h-6.51l-4.48.48-2-.48-6.51.48q-5.49,0-5.49-2l.48-1.49-.48-.49c2-.44,3-.93,3-1.49l3.51.48Zm33.88-83.41,3,1.5h1a7.05,7.05,0,0,0,4.52-1.5h.49l1,1v4l-1,1h-3l-2-.52-2,.52c-1.35,0-2-.33-2-1l-12.53,1.5-3-.49h-3.51l-3,.49-1.49-1-3.52.52-9-.52-9.49,1-1.54-.49V110.7q0-1.19,4.53-1.5l.48.49h.53l3-1,3,.52,5.53-.52,1,1h.53l8-1h3.51l4,1,5.49-1,3,.52Zm-20.48,13.19,1,1v4l-4.49,4.53-.48,7.51,1,4q-2.5,5.76-2.51,8.53l2,6.5-.48,5.5,1,6.5-1.5,4.48q3,3.87,3,7l1.54-1h.48l1,1c-.35,2-.85,3-1.49,3-2.34-.44-3.52-.94-3.52-1.49l-3.51.48h-1.5l-11-7,.53-.48v-.53l-.53-1.49h8l2.5-1.5v-1h-1l-1.49,1c-3.34-.23-5-1.23-5-3h-2.51c0,1-.34,1.49-1,1.49h-1q-1.14-.27-3.47-7.51c1.32-.18,2.47-1.35,3.47-3.52l-.48-2q4,0,4-2.5a8,8,0,0,0,6.51-3h3.51v-1.5l-.52-.48v-.53c-4.34,0-7,.84-8,2.51q-2.46,0-5,3h-1.49l.52,2.5h-1.54q-1,0-2-9.53,0-4.35,5-8.49v-1l-.53-3.51q2.37,0,8-7l4.48-1.54v-1h-1v-.53a3.25,3.25,0,0,1,3-2l1.49.48A8.23,8.23,0,0,0,424.29,121.38Zm22,44.51,1,1q0,7.88-4.53,9.5,0,2.67-8.53,5.53l-3,3h-2c-1.35-.53-2-1.7-2-3.51l10.5-5A53.61,53.61,0,0,1,446.31,165.89Zm-13.54-43.55,6.5,3.52h.53c3-.5,4.48-1.49,4.48-3h1c1,.32,1.5,1.32,1.5,3l-.48,2,1,7.47-.53,5.54,1,3.47q-1.19,3-3.52,3c-.11-.91-.95-1.58-2.5-2q-2.85-14-8-14,0-3.47-3.51-3.47l-2-1.54v-1l3.47-2Z" transform="translate(-108.1 -107.97)"/><path class="cls-1" d="M476.28,190.46q5.63,0,5.62,2.55v1l9.14-2.55,3.08.53,4-1.06c3.75.35,6,.87,6.64,1.54h1l1.54-1h.48a5.77,5.77,0,0,0,3.56,1.54l4.09-2.07H516l1,1.06v3.56q0,1.49-10.68,1.49H504.8l-2.07-.48-2,.48h-.48l-1.06-1-13.23,1.54-3-.53h-4.08l-2,.53-2.06-1-3,.48-8.66-.48-10.68,1-1.54-.53v-1l.53-.48-.53-.53v-1.54q0-1.32,9.14-2l2.55.53,5.63-.53c0,.67.51,1,1.53,1C474.08,192.25,476.28,191.57,476.28,190.46Zm5.62-81.83q13.71,0,13.71,2.55h1q1.94-2,9.19-2c0,.73,1.36,1.41,4.08,2q5.24-.53,6.6-1.54l.52.53v3l-1,1h-3.07l-7.12,1.06-14.24-1.06-3.56.53-2.07-.53-.48.53h-1v-.53l-16.26,1.06-4.57-1.06-.53.53-2.55-.53-7.12,1.06-2-1.54c0-2.72,2.53-4.09,7.6-4.09l10.2-.48,1,1h1l6.63-1,.49.48h.53l2-.48v1h.52Zm-15.82,67.06h.53c0,1.79,2,3.15,6.11,4.09v1a4.23,4.23,0,0,1-2.55,4h-5.1l-3.56-1-6.11,1a6,6,0,0,1-2-4v-.53a38.39,38.39,0,0,1,10.2-2h1C464.82,176.54,465.32,175.69,466.08,175.69ZM473.73,135v2.54l.52,4.09-3.07,11.21-3,13.23.48,2.54c-.67,0-1,1.35-1,4.05l-8.13,3.6H459l-1-1.05q6.24-8.08,7.12-13.71l-.48-.53v-.53q0-3.56,3-3.56v-1.49h-1v-1.06l1.54-2-1-1.54A54.28,54.28,0,0,0,470.7,138c.84,0,1.34-.85,1.49-2.55l.53-.52Zm20.39-13.71.48.48-.48,3.56a10.6,10.6,0,0,0,3,6.11V139l5.1,15.78v.53l-.53,1.49L504.8,166l-.53,3q1.41,0,2.06,5.1l-.52,3.07h.52q4.05,1.46,4.05,4.57v1l-1.54.53-2.51-.53a17,17,0,0,1-7.16,1.54h-1.49l-3.56-1-9.19,1c-1.55-.67-2.4-1.35-2.55-2q2.55-3.21,2.55-5.1l-1-3.56.49-.53v-.52l-1-3,.52-2h-.52l-6.11.49q-5.1-.41-5.1-1.54v-3l1.05-1,.49.48-.49.53V166h1.5v-.53l-.49-1.5h.49l1.54.49,1.53-.49,2,.49,1.53-1-4.08-22.42-.49-3,1-1v-1.54q-3.07,0-3.07-5.09v-5.1c0-.68,1-1.19,3.07-1.54v-.48l2,.48ZM484.41,138c0,.68-.68,1-2,1l-.48.53v.48h1l6.11-1v-1Zm3.6,4.05v.52l2.5.53h5.63v-1l-1.54-1.5Z" transform="translate(-108.1 -107.97)"/><path class="cls-1" d="M544.39,190.15a7,7,0,0,0,4,1,5.48,5.48,0,0,1-1.49,3.52l.48,1.49-.48.49h-3l-2-.49-.49.49h-.52l-.49-.49h-.48l-3.52.49-2-.49-4.48.49H528.4l-4.53-.49-3,1q-6-.52-6-1.54v-2q0-1,4.53-2l4,.52,2-.52,3.52.52,4-1.49,3,1.49C539.88,192,542.72,191.32,544.39,190.15ZM519,108.72h.53l5,.48-.48,2.51h.48l12.53-.48c0-1.35.34-2,1-2h4l1.49,1H544l3.47-.48,1,1,3-1h5l3-.53,2.51.53,4-1h4a7.45,7.45,0,0,1,4.52,1.49l1.5-1,1,1v3.52l-1,1-7-.53-11.51,1-5-1-5.49,1-5-1-5,.53-5-1-6,1-6.5-.53H515v-3c0-.68.84-1,2.51-1Zm-1.14,11.91,7,.48,2-.48q4,2,4,5.49a7.46,7.46,0,0,0-5,7.52q-1.27,0-2.5,9l-2,1.49h-1.49c-1.17,0-2-1.83-2.5-5.49v-4c0-.68.49-1,1.49-1v-2c-1,0-1.49-.34-1.49-1s.67-1,2-1v-1.5q-3.52-.25-3.52-6.5Zm34.54,13.54h1.49q0,2.46-1,2.46l1,7-1,3.51.48,1.5-1,2,.53,2-.53,8,1.49,9.54-1,6.5h.48l4.53,3v1l-3,3-2.5-.48-5.49,1-3.52-1-4.48,1-4-2-4,.48-1.54-.48v-1q4-3,4-9.5v-4.52q1.54-3,3-3c0-.5-.83-1-2.5-1.49v-1l1-2a13,13,0,0,0-2.51-6.5l1.5-2-1-12a8.53,8.53,0,0,0,4-2.5h1v.52l-.49.49v.52h7.48c1-1.34,3.2-2,6.54-2Zm-1-12.53c1.64.5,2.46,1.33,2.46,2.51q0,7.51-3,7.51-2.5,2.51-8,2.51-7.51,0-7.52-2l-.48-6q2.24,0,12-4Zm21.49,69,4,1.49v4.49h-1a12.41,12.41,0,0,0-5.53,1l-3-.49-3,.49-3.51-.49-3.52.49c0-.68-.5-1-1.49-1l-.49.52-2.5-.52-3.52.52-.48-.52v-.49c0-1.35.83-2,2.5-2l1.5-.48c.5-1.35,1-2,1.49-2h4.48l5.54,1h1.49C566.75,192,569.07,191.32,572.91,190.68Zm-13.49-69v1l-1.49.48-.53-.48v-.53l.53-.48Zm8.48,0a15.64,15.64,0,0,1,2,7.52l-1,4.48.53,4.52c-1,4-1.86,6-2.5,6H565.4c-.5,0-1.16-1.16-2-3.47l.48-4.53q0-3.73-4-8.52l-.48-1.5,6-4Z" transform="translate(-108.1 -107.97)"/><path class="cls-1" d="M622.31,108l4.52.49h1.5l1,1V113c0,.64-1.34,1.14-4,1.49V114c0-.82.67-1.31,2-1.49V110l-7.56,3q-5.53,0-5.54,1.49L608.2,114h-4l-3,1-4.53-1-9,1-1.54-1-3.51.53h-.49l-2-.53-1.49.53q-5.06-.3-5.06-1.49v-1.54l1-1L575,112h.52q1.5-2,5.54-2v-.53l5,.53h11.6l7-1,4.53.49Zm5.45,82.88h.48l1.49,1.5v4l-1,1h-4l-4.52-.48-.53.48-5-.48h-.53l-13,.48-.53-.48h-.48l-2.55.48-5-1-4,1-3.52-.48-3,.48-2-.48-4,.48-2-1.49.48-.53v-1.49l-.48-1.54h.48l2.55-1h2q5,0,5,1.5v.48h1v-.48l-.48-.53v-.48l1.49-.49,5.54.49.48-.49h.53l6,1,4.05-1,.48.49,2.55-.49h.48l1.49,1,2-.48.52.48h.49l.52-.48h.49l3,1a16.43,16.43,0,0,1,6.55-1h5Zm-39.55-69.12,8,2.55,2.55-1.54,2.5,3v2.51a5.59,5.59,0,0,1-1.49,3.51v2l.48,5.06a5.42,5.42,0,0,1-4,5.53l-3,2q-4.53,0-6.07,2.5l-3.51.48v.53q2.51,2.12,2.5,3.52h.53c0-1.5,1.51-2.33,4.53-2.51,0-1.35,1.17-2,3.51-2l4.53-3h.53l2.5,5.54-3.51,12.08.48,2-.48.49v.52l1,3.52-.53.48v.53l.53.48v1.54h-.53l.53,3.52v6c0,.79-3,1.46-9.1,2l-4.53-2.51h-.48l-6.06,2q-3.21-1.3-3.52-2.54v-1.5c0-.88,1.17-1.55,3.52-2l-.49-2.5,1.5-4.53-1.5-5.05a12.14,12.14,0,0,0,1-5.54v-3l-1-7.56,1-5.54-1-5.53,1-7.08q0-1.71-5.53-6.5A25.15,25.15,0,0,1,588.21,121.73Zm19.11-1,.53.53v.48l-1,3v.53l1,1h1a5.47,5.47,0,0,1,2-4l5,.48,5.54-.48.53.48v4l.48,11.08q-2.6,2.5-4.53,2.5l-3.51-5,.48-1.54-5.54-5v-.52h-1.49l-2,.52a3.26,3.26,0,0,1-2.51-3.51v-2.55C603.32,121.86,604.66,121.19,607.32,120.72Zm3,18.63h1.54q1.5,6.15,3,21.67v2l-2.5,2.5h-.49q-3.69-2.64-6.55-9l-2-2v-.53c0-1.85,1.34-3.35,4-4.53l1-2-.48-.53v-.48Zm10.59,25.18c.88,0,1.72,2.35,2.51,7l-1,3v8l-1.5,1.53-8.08-1.53-9.05,1v-.49q.62-4.51,1.53-4.52l2.51.48a1.78,1.78,0,0,1,2-2l1.49.53q3-2.41,6.07-9.58Z" transform="translate(-108.1 -107.97)"/><path class="cls-1" d="M640.1,108.72q5,.48,5,1.49c0,.68-.49,1-1.49,1v.48l1,1h.52q5,0,5-1.49c0-1.35.34-2,1-2h1.49q1,0,1,1.5h2.46l.52-1.5,3,.53,5-.53,2.5,1.5q8.58-.48,10.51-1.5l4.48.53h1l4.52-.53c2,.44,3,.94,3,1.5v3c0,.65-2,1.14-6,1.49l-2.5-.52-5,.52-13.45-.52H663c-3.86,0-6.51.33-7.95,1l-3-1h-7.51c-.65,0-1-.5-1-1.5h-.53l-2.46,2-6-1-4.48.49h-2l-1-1v-2l7.47-2.51,3,1C639.27,110,640.1,109.48,640.1,108.72Zm5,82.35.49,1.5h1l1.49-1h1l1.5,1h6.46l2-.49,1.49.49v-.49l1-1h4a20.83,20.83,0,0,0,6.5,4.53h2.46v-1c0-.67-.82-1-2.46-1v-2.51l4,.53,5.45-.53,3,1h2l3.47-.48.53.48v4l-1,1.5-2.51-.49h-9.44l-3-.52-2.46.52-2.5-.52-.49.52v.49l-7.51-1-2.46,1-5.49-.49h-2l-2.46.49-3-.49h-6.46l-2.5.49-3-.49h-1.5l-5,.49-.48-.49v-3.51l1-1h3.47l3-.49,1.5.49,4.52-.49,1.5.49C642.13,191.92,643.12,191.43,645.11,191.07Zm-11-69.52.48.49v.52q-.23,1.36-4.48,4h-.48l-2-2Q627.62,123,634.13,121.55Zm18,0h.48l1,1v.49l-1.5,2.5.48,12.48-1.49,4v.48l2,6-2,5.49,2,3.48L651.57,169l1.5,2.46v1l-.49,3,.49.53v.48l-.49,3v1l.49,2.46-8.48,1.54-9-.53-3.47.53c-2.34-.27-3.52-1.44-3.52-3.52l6-3h.53a20.29,20.29,0,0,1-3.52-8l.53-8v-3l-1-4.52a7.84,7.84,0,0,0,6-3q5,0,5-2.46c2.81,0,4.62-.84,5.45-2.51q3,0,3-3h-.53a7.45,7.45,0,0,0-6.46,3,5.72,5.72,0,0,0-4.53,2.51,8.67,8.67,0,0,0-6.46,2.46h-1.49V151l2-11.47-.49-3.52.49-1.49-1-7h.48c1.67,0,3.67-1.16,6-3.47l2.51-1.5h.48l3.51,1Q649.64,123.57,652.1,121.55Zm-5.49,55.9v2.46l1,1h.52v-1l-.52-2.46Zm13-55.9h1q6.12,5,10,5v1h-1v1H670l2.51-.48q4.17,3.9,7,11.95c1.56,0,2.55,2.49,3,7.47L682,153l.48.53V154l-.48,2,.48,2q-2.28,10.77-7,16.44,0,1.1-4.48,3.51-2.55,4.48-8.48,4.49l-4,1.49q-2.5,0-2.5-4.48,0-1.37,5-2v-1h.48l-.48-2.5v-6l-.49-5a14.46,14.46,0,0,0,4-6c1,0,1.54-.33,1.54-1-.65-1.49-1.32-2.31-2-2.46l-1.49,1.5.48,2h-2v-2.5c0-1.64-.34-2.46-1-2.46l.52-2.51v-2h.49l.48.53h.53l.48-.53V147l-1.49-2.51,1-7L658.56,126c-1.32,0-2-.33-2-1v-1Zm10,70.05,1,1-.53.53h-.48l-1-1,.52-.48Zm2.5-60.07-.52.53v.48H674v-.48Zm5.5,61v1.54h1v-.53Z" transform="translate(-108.1 -107.97)"/></svg>